<svg width="260" height="70" viewBox="0 0 260 70" fill="none" xmlns="http://www.w3.org/2000/svg">
<g clip-path="url(#clip0_80_40)">
<path d="M105.245 54.4019C104.212 54.4019 103.403 54.0558 102.817 53.3636C102.231 52.6714 101.938 51.7062 101.938 50.4681C101.938 49.7076 102.012 48.9861 102.158 48.3037C102.304 47.6212 102.512 46.9973 102.78 46.4318C103.057 45.8663 103.386 45.3789 103.769 44.9694C104.159 44.5501 104.594 44.2284 105.074 44.0042C105.554 43.7799 106.074 43.6678 106.636 43.6678C107.164 43.6678 107.628 43.7214 108.027 43.8287C108.425 43.9359 108.803 44.0871 109.161 44.282L108.746 45.4227C108.445 45.257 108.12 45.1156 107.77 44.9986C107.421 44.8816 107.038 44.8231 106.624 44.8231C106.119 44.8231 105.652 44.9596 105.22 45.2326C104.797 45.5056 104.423 45.8907 104.098 46.3879C103.781 46.8851 103.533 47.475 103.354 48.1574C103.183 48.8301 103.098 49.5711 103.098 50.3803C103.098 50.9165 103.175 51.404 103.329 51.8427C103.492 52.2717 103.74 52.6129 104.074 52.8664C104.407 53.1199 104.834 53.2466 105.355 53.2466C105.664 53.2466 105.944 53.2223 106.196 53.1735C106.457 53.115 106.676 53.0516 106.855 52.9834L107.417 49.8977H105.708L105.916 48.757H108.71L107.783 53.8609C107.417 54.0168 107.03 54.1485 106.624 54.2557C106.217 54.3532 105.757 54.4019 105.245 54.4019Z" fill="#4E504D"/>
<path d="M112.281 54.4019C111.777 54.4019 111.346 54.285 110.988 54.051C110.638 53.8072 110.37 53.466 110.183 53.0273C110.004 52.5788 109.914 52.0523 109.914 51.4479C109.914 50.8239 109.988 50.2097 110.134 49.6052C110.289 48.991 110.508 48.4353 110.793 47.9381C111.078 47.4311 111.419 47.0265 111.818 46.7243C112.224 46.422 112.68 46.2709 113.184 46.2709C113.802 46.2709 114.266 46.4318 114.575 46.7535C114.892 47.0753 115.051 47.5237 115.051 48.0989C115.051 48.4792 114.978 48.8399 114.831 49.1811C114.685 49.5126 114.457 49.8051 114.148 50.0586C113.839 50.3121 113.444 50.5119 112.965 50.6582C112.485 50.7947 111.907 50.8629 111.232 50.8629H111.025C111.017 50.9506 111.008 51.0433 111 51.1408C111 51.2383 111 51.326 111 51.404C111 51.9987 111.122 52.4716 111.366 52.8225C111.61 53.1638 111.98 53.3344 112.477 53.3344C112.786 53.3344 113.078 53.2808 113.355 53.1735C113.632 53.0663 113.933 52.92 114.258 52.7348V53.8316C113.949 53.9973 113.644 54.1338 113.343 54.2411C113.05 54.3483 112.696 54.4019 112.281 54.4019ZM111.269 49.8246C111.757 49.8246 112.208 49.7758 112.623 49.6783C113.038 49.5711 113.371 49.4005 113.623 49.1665C113.876 48.9228 114.002 48.601 114.002 48.2013C114.002 47.9478 113.928 47.7431 113.782 47.5871C113.644 47.4214 113.424 47.3385 113.123 47.3385C112.863 47.3385 112.607 47.436 112.355 47.631C112.102 47.826 111.875 48.1087 111.671 48.4792C111.468 48.8496 111.305 49.2981 111.183 49.8246H111.269Z" fill="#4E504D"/>
<path d="M117.674 54.4019C117.235 54.4019 116.865 54.2752 116.564 54.0217C116.263 53.7682 116.113 53.3246 116.113 52.6909C116.113 52.5447 116.121 52.3838 116.137 52.2083C116.161 52.0231 116.19 51.8378 116.222 51.6526L116.967 47.397H115.954L116.052 46.812L117.15 46.2563L117.906 44.633H118.541L118.211 46.4172H119.858L119.687 47.397H118.053L117.296 51.6672C117.272 51.794 117.247 51.9402 117.223 52.106C117.198 52.2619 117.186 52.4082 117.186 52.5447C117.186 52.7689 117.235 52.959 117.333 53.115C117.438 53.271 117.605 53.349 117.833 53.349C117.979 53.349 118.122 53.3344 118.26 53.3051C118.398 53.2661 118.545 53.2174 118.699 53.1589V54.1387C118.602 54.1972 118.451 54.2557 118.248 54.3142C118.044 54.3727 117.853 54.4019 117.674 54.4019Z" fill="#4E504D"/>
<path d="M123.352 54.2557L125.194 43.8141H126.353L129.025 52.4423H129.062C129.078 52.2668 129.098 52.067 129.123 51.8427C129.155 51.6087 129.192 51.365 129.233 51.1115C129.273 50.8483 129.314 50.585 129.355 50.3218C129.395 50.0586 129.44 49.8051 129.489 49.5614L130.514 43.8141H131.551L129.708 54.2557H128.549L125.853 45.5982H125.816C125.8 45.7542 125.776 45.9492 125.743 46.1832C125.719 46.4074 125.686 46.656 125.646 46.929C125.605 47.1922 125.56 47.4701 125.511 47.7626C125.471 48.0453 125.426 48.3183 125.377 48.5815L124.377 54.2557H123.352Z" fill="#4E504D"/>
<path d="M134.443 54.4019C133.938 54.4019 133.507 54.285 133.149 54.051C132.8 53.8072 132.531 53.466 132.344 53.0273C132.165 52.5788 132.076 52.0523 132.076 51.4479C132.076 50.8239 132.149 50.2097 132.295 49.6052C132.45 48.991 132.669 48.4353 132.954 47.9381C133.239 47.4311 133.58 47.0265 133.979 46.7243C134.386 46.422 134.841 46.2709 135.345 46.2709C135.964 46.2709 136.427 46.4318 136.736 46.7535C137.054 47.0753 137.212 47.5237 137.212 48.0989C137.212 48.4792 137.139 48.8399 136.993 49.1811C136.846 49.5126 136.618 49.8051 136.309 50.0586C136 50.3121 135.606 50.5119 135.126 50.6582C134.646 50.7947 134.068 50.8629 133.393 50.8629H133.186C133.178 50.9506 133.17 51.0433 133.162 51.1408C133.162 51.2383 133.162 51.326 133.162 51.404C133.162 51.9987 133.284 52.4716 133.528 52.8225C133.772 53.1638 134.142 53.3344 134.638 53.3344C134.947 53.3344 135.24 53.2808 135.516 53.1735C135.793 53.0663 136.094 52.92 136.419 52.7348V53.8316C136.11 53.9973 135.805 54.1338 135.504 54.2411C135.211 54.3483 134.857 54.4019 134.443 54.4019ZM133.43 49.8246C133.918 49.8246 134.369 49.7758 134.784 49.6783C135.199 49.5711 135.533 49.4005 135.785 49.1665C136.037 48.9228 136.163 48.601 136.163 48.2013C136.163 47.9478 136.09 47.7431 135.943 47.5871C135.805 47.4214 135.585 47.3385 135.284 47.3385C135.024 47.3385 134.768 47.436 134.516 47.631C134.264 47.826 134.036 48.1087 133.833 48.4792C133.629 48.8496 133.467 49.2981 133.345 49.8246H133.43Z" fill="#4E504D"/>
<path d="M138.304 54.2557L138.036 46.4172H139.085L139.182 50.5997C139.199 51.1359 139.199 51.6234 139.182 52.0621C139.166 52.4911 139.15 52.8469 139.134 53.1296H139.182C139.248 52.9249 139.325 52.686 139.414 52.4131C139.504 52.1303 139.597 51.8525 139.695 51.5795C139.801 51.2968 139.894 51.053 139.975 50.8483L141.696 46.4172H142.855L143.062 50.6143C143.07 50.975 143.079 51.3942 143.087 51.872C143.095 52.3399 143.091 52.7592 143.074 53.1296H143.123C143.196 52.8762 143.278 52.5983 143.367 52.2961C143.465 51.9841 143.571 51.6575 143.684 51.3163C143.806 50.9653 143.933 50.6143 144.063 50.2633L145.49 46.4172H146.625L143.599 54.2557H142.306L142.123 50.0147C142.115 49.7515 142.107 49.5029 142.098 49.2689C142.098 49.0251 142.098 48.7717 142.098 48.5084C142.107 48.2452 142.111 47.9624 142.111 47.6602H142.062C141.989 47.8942 141.915 48.1184 141.842 48.3329C141.777 48.5474 141.7 48.7765 141.61 49.0203C141.521 49.2542 141.411 49.537 141.281 49.8685L139.573 54.2557H138.304Z" fill="#4E504D"/>
<path d="M153.53 54.4019C152.888 54.4019 152.334 54.2411 151.871 53.9193C151.407 53.5976 151.049 53.1394 150.797 52.5447C150.553 51.9402 150.431 51.2285 150.431 50.4096C150.431 49.7856 150.492 49.1519 150.614 48.5084C150.736 47.865 150.919 47.2556 151.163 46.6804C151.415 46.1052 151.728 45.5933 152.103 45.1449C152.485 44.6866 152.928 44.3259 153.432 44.0627C153.937 43.7994 154.506 43.6678 155.141 43.6678C155.555 43.6678 155.938 43.7166 156.287 43.8141C156.637 43.9116 156.963 44.0578 157.263 44.2528L156.824 45.335C156.605 45.1985 156.357 45.0815 156.08 44.984C155.812 44.8768 155.498 44.8231 155.141 44.8231C154.653 44.8231 154.217 44.9304 153.835 45.1449C153.453 45.3594 153.119 45.6518 152.835 46.0223C152.558 46.3928 152.326 46.8169 152.139 47.2946C151.952 47.7626 151.814 48.2647 151.724 48.8009C151.635 49.3274 151.59 49.8538 151.59 50.3803C151.59 51.2675 151.777 51.9695 152.151 52.4862C152.534 52.9932 153.058 53.2466 153.725 53.2466C154.059 53.2466 154.384 53.2076 154.701 53.1296C155.027 53.0516 155.344 52.9493 155.653 52.8225V53.9632C155.336 54.0997 155.014 54.207 154.689 54.285C154.372 54.3629 153.986 54.4019 153.53 54.4019Z" fill="#4E504D"/>
<path d="M159.019 54.4019C158.694 54.4019 158.405 54.3288 158.153 54.1826C157.909 54.0363 157.718 53.817 157.58 53.5245C157.449 53.232 157.384 52.8762 157.384 52.4569C157.384 52.2327 157.397 52.0231 157.421 51.8281C157.454 51.6234 157.486 51.4137 157.519 51.1993L158.373 46.4172H159.459L158.58 51.3455C158.548 51.56 158.519 51.7452 158.495 51.9012C158.478 52.0572 158.47 52.1986 158.47 52.3253C158.47 52.6373 158.535 52.8859 158.665 53.0711C158.804 53.2466 159.023 53.3344 159.324 53.3344C159.601 53.3344 159.898 53.2174 160.215 52.9834C160.54 52.7494 160.841 52.3741 161.118 51.8573C161.394 51.3406 161.61 50.6533 161.764 49.7953L162.362 46.4172H163.424L162.033 54.2557H161.154L161.289 52.8079H161.228C161.073 53.0419 160.89 53.2856 160.679 53.5391C160.475 53.7829 160.235 53.9876 159.959 54.1533C159.69 54.3191 159.377 54.4019 159.019 54.4019Z" fill="#4E504D"/>
<path d="M165.67 54.4019C165.271 54.4019 164.922 54.3532 164.621 54.2557C164.328 54.168 164.068 54.051 163.84 53.9047V52.7202C164.051 52.8762 164.316 53.0224 164.633 53.1589C164.958 53.2856 165.292 53.349 165.633 53.349C165.959 53.349 166.227 53.3003 166.439 53.2028C166.658 53.0955 166.825 52.9493 166.939 52.764C167.053 52.5788 167.11 52.3643 167.11 52.1206C167.11 51.9256 167.077 51.7599 167.012 51.6234C166.947 51.4771 166.833 51.3358 166.67 51.1993C166.516 51.053 166.296 50.8873 166.011 50.702C165.702 50.4876 165.442 50.2779 165.231 50.0732C165.027 49.8587 164.873 49.6247 164.767 49.3712C164.661 49.1178 164.608 48.8253 164.608 48.4938C164.608 48.0453 164.698 47.6553 164.877 47.3239C165.064 46.9924 165.324 46.734 165.658 46.5488C165.991 46.3635 166.382 46.2709 166.829 46.2709C167.227 46.2709 167.594 46.3294 167.927 46.4464C168.269 46.5537 168.561 46.6755 168.805 46.812L168.464 47.8357C168.252 47.7187 168.016 47.6115 167.756 47.514C167.496 47.4067 167.187 47.3531 166.829 47.3531C166.479 47.3531 166.199 47.4555 165.987 47.6602C165.784 47.8552 165.682 48.1087 165.682 48.4207C165.682 48.5864 165.711 48.7375 165.767 48.874C165.824 49.0105 165.93 49.1519 166.085 49.2981C166.247 49.4346 166.471 49.6004 166.756 49.7953C167.032 49.9903 167.28 50.1853 167.5 50.3803C167.72 50.5753 167.89 50.7995 168.012 51.053C168.143 51.3065 168.208 51.6185 168.208 51.989C168.208 52.5154 168.102 52.959 167.89 53.3198C167.687 53.6805 167.394 53.9535 167.012 54.1387C166.63 54.3142 166.182 54.4019 165.67 54.4019Z" fill="#4E504D"/>
<path d="M171.302 54.4019C170.863 54.4019 170.493 54.2752 170.192 54.0217C169.891 53.7682 169.74 53.3246 169.74 52.6909C169.74 52.5447 169.749 52.3838 169.765 52.2083C169.789 52.0231 169.818 51.8378 169.85 51.6526L170.595 47.397H169.582L169.679 46.812L170.778 46.2563L171.534 44.633H172.168L171.839 46.4172H173.486L173.315 47.397H171.68L170.924 51.6672C170.9 51.794 170.875 51.9402 170.851 52.106C170.826 52.2619 170.814 52.4082 170.814 52.5447C170.814 52.7689 170.863 52.959 170.961 53.115C171.066 53.271 171.233 53.349 171.461 53.349C171.607 53.349 171.75 53.3344 171.888 53.3051C172.026 53.2661 172.172 53.2174 172.327 53.1589V54.1387C172.229 54.1972 172.079 54.2557 171.876 54.3142C171.672 54.3727 171.481 54.4019 171.302 54.4019Z" fill="#4E504D"/>
<path d="M176.122 54.3727C175.618 54.3727 175.182 54.2508 174.816 54.0071C174.45 53.7634 174.17 53.4173 173.974 52.9688C173.779 52.5106 173.682 51.9743 173.682 51.3601C173.682 50.8824 173.726 50.4047 173.816 49.927C173.905 49.4395 174.035 48.9813 174.206 48.5523C174.385 48.1233 174.605 47.7431 174.865 47.4116C175.125 47.0704 175.43 46.8023 175.78 46.6073C176.13 46.4123 176.52 46.3148 176.951 46.3148C177.464 46.3148 177.899 46.4367 178.257 46.6804C178.623 46.9241 178.904 47.2751 179.099 47.7333C179.294 48.1818 179.392 48.718 179.392 49.342C179.392 49.8197 179.347 50.2974 179.257 50.7752C179.168 51.2529 179.034 51.7111 178.855 52.1498C178.684 52.5788 178.468 52.959 178.208 53.2905C177.948 53.622 177.643 53.8852 177.293 54.0802C176.943 54.2752 176.553 54.3727 176.122 54.3727ZM176.183 53.3051C176.419 53.3051 176.638 53.2466 176.842 53.1296C177.053 53.0127 177.248 52.842 177.427 52.6178C177.606 52.3838 177.757 52.1011 177.879 51.7696C178.009 51.4284 178.11 51.0433 178.184 50.6143C178.257 50.1853 178.294 49.7125 178.294 49.1958C178.294 48.9033 178.249 48.6205 178.159 48.3476C178.078 48.0648 177.94 47.8357 177.744 47.6602C177.549 47.475 177.289 47.3824 176.964 47.3824C176.695 47.3824 176.447 47.4506 176.219 47.5871C175.992 47.7236 175.788 47.9186 175.609 48.1721C175.43 48.4158 175.276 48.7083 175.146 49.0495C175.024 49.381 174.93 49.7466 174.865 50.1463C174.8 50.546 174.768 50.9653 174.768 51.404C174.768 52.0085 174.89 52.4764 175.134 52.8079C175.386 53.1394 175.735 53.3051 176.183 53.3051Z" fill="#4E504D"/>
<path d="M180.312 54.2557L181.703 46.4172H182.582L182.448 47.865H182.509C182.655 47.6212 182.826 47.3775 183.021 47.1337C183.224 46.89 183.456 46.6853 183.716 46.5195C183.985 46.3538 184.286 46.2709 184.619 46.2709C185.067 46.2709 185.408 46.4269 185.644 46.7389C185.888 47.0411 186.035 47.4652 186.083 48.0112H186.132C186.295 47.7187 186.486 47.4409 186.706 47.1776C186.933 46.9144 187.185 46.6999 187.462 46.5342C187.739 46.3587 188.044 46.2709 188.377 46.2709C188.881 46.2709 189.272 46.4367 189.548 46.7681C189.825 47.0996 189.963 47.5773 189.963 48.2013C189.963 48.4353 189.951 48.6547 189.927 48.8594C189.902 49.0544 189.87 49.264 189.829 49.4882L188.987 54.2557H187.901L188.78 49.342C188.82 49.1178 188.849 48.9276 188.865 48.7717C188.881 48.6157 188.889 48.4645 188.889 48.3183C188.889 48.0258 188.82 47.7918 188.682 47.6163C188.552 47.4409 188.344 47.3531 188.06 47.3531C187.865 47.3531 187.657 47.4214 187.438 47.5578C187.218 47.6846 187.002 47.8845 186.791 48.1574C186.579 48.4304 186.388 48.7814 186.218 49.2104C186.047 49.6296 185.908 50.1317 185.803 50.7167L185.18 54.2557H184.107L184.973 49.342C185.014 49.1178 185.042 48.9325 185.058 48.7863C185.075 48.6303 185.083 48.4938 185.083 48.3768C185.083 48.0551 185.022 47.8065 184.9 47.631C184.778 47.4457 184.574 47.3531 184.29 47.3531C184.095 47.3531 183.883 47.4165 183.655 47.5432C183.436 47.67 183.22 47.8747 183.009 48.1574C182.797 48.4304 182.602 48.7911 182.423 49.2396C182.244 49.6881 182.098 50.2341 181.984 50.8775L181.386 54.2557H180.312Z" fill="#4E504D"/>
<path d="M193.599 54.4019C193.095 54.4019 192.664 54.285 192.306 54.051C191.956 53.8072 191.687 53.466 191.5 53.0273C191.321 52.5788 191.232 52.0523 191.232 51.4479C191.232 50.8239 191.305 50.2097 191.452 49.6052C191.606 48.991 191.826 48.4353 192.11 47.9381C192.395 47.4311 192.737 47.0265 193.135 46.7243C193.542 46.422 193.997 46.2709 194.502 46.2709C195.12 46.2709 195.584 46.4318 195.893 46.7535C196.21 47.0753 196.368 47.5237 196.368 48.0989C196.368 48.4792 196.295 48.8399 196.149 49.1811C196.002 49.5126 195.775 49.8051 195.466 50.0586C195.156 50.3121 194.762 50.5119 194.282 50.6582C193.802 50.7947 193.225 50.8629 192.55 50.8629H192.342C192.334 50.9506 192.326 51.0433 192.318 51.1408C192.318 51.2383 192.318 51.326 192.318 51.404C192.318 51.9987 192.44 52.4716 192.684 52.8225C192.928 53.1638 193.298 53.3344 193.794 53.3344C194.103 53.3344 194.396 53.2808 194.673 53.1735C194.949 53.0663 195.25 52.92 195.575 52.7348V53.8316C195.266 53.9973 194.961 54.1338 194.66 54.2411C194.368 54.3483 194.014 54.4019 193.599 54.4019ZM192.586 49.8246C193.074 49.8246 193.526 49.7758 193.941 49.6783C194.355 49.5711 194.689 49.4005 194.941 49.1665C195.193 48.9228 195.319 48.601 195.319 48.2013C195.319 47.9478 195.246 47.7431 195.1 47.5871C194.961 47.4214 194.742 47.3385 194.441 47.3385C194.18 47.3385 193.924 47.436 193.672 47.631C193.42 47.826 193.192 48.1087 192.989 48.4792C192.786 48.8496 192.623 49.2981 192.501 49.8246H192.586Z" fill="#4E504D"/>
<path d="M197.076 54.2557L198.467 46.4172H199.346L199.211 47.865H199.272C199.443 47.592 199.622 47.3385 199.809 47.1045C199.996 46.8608 200.208 46.6609 200.444 46.5049C200.68 46.3489 200.952 46.2709 201.261 46.2709C201.375 46.2709 201.493 46.2807 201.615 46.3002C201.745 46.3099 201.863 46.3343 201.969 46.3733L201.737 47.5286C201.631 47.4994 201.526 47.4799 201.42 47.4701C201.322 47.4506 201.22 47.4409 201.115 47.4409C200.814 47.4409 200.533 47.5383 200.273 47.7333C200.021 47.9186 199.793 48.1672 199.59 48.4792C199.394 48.7912 199.228 49.1373 199.089 49.5175C198.951 49.8977 198.849 50.2828 198.784 50.6728L198.15 54.2557H197.076Z" fill="#4E504D"/>
<path d="M203.487 54.4019C203.088 54.4019 202.739 54.3532 202.438 54.2557C202.145 54.168 201.885 54.051 201.657 53.9047V52.7202C201.868 52.8762 202.133 53.0224 202.45 53.1589C202.775 53.2856 203.109 53.349 203.45 53.349C203.776 53.349 204.044 53.3003 204.256 53.2028C204.475 53.0955 204.642 52.9493 204.756 52.764C204.87 52.5788 204.927 52.3643 204.927 52.1206C204.927 51.9256 204.894 51.7599 204.829 51.6234C204.764 51.4771 204.65 51.3358 204.487 51.1993C204.333 51.053 204.113 50.8873 203.829 50.702C203.52 50.4876 203.259 50.2779 203.048 50.0732C202.844 49.8587 202.69 49.6247 202.584 49.3712C202.478 49.1178 202.426 48.8253 202.426 48.4938C202.426 48.0453 202.515 47.6553 202.694 47.3239C202.881 46.9924 203.141 46.734 203.475 46.5488C203.808 46.3635 204.199 46.2709 204.646 46.2709C205.045 46.2709 205.411 46.3294 205.744 46.4464C206.086 46.5537 206.379 46.6755 206.623 46.812L206.281 47.8357C206.069 47.7187 205.834 47.6115 205.573 47.514C205.313 47.4067 205.004 47.3531 204.646 47.3531C204.296 47.3531 204.016 47.4555 203.804 47.6602C203.601 47.8552 203.499 48.1087 203.499 48.4207C203.499 48.5864 203.528 48.7375 203.585 48.874C203.642 49.0105 203.747 49.1519 203.902 49.2981C204.064 49.4346 204.288 49.6004 204.573 49.7953C204.849 49.9903 205.097 50.1853 205.317 50.3803C205.537 50.5753 205.708 50.7995 205.83 51.053C205.96 51.3065 206.025 51.6185 206.025 51.989C206.025 52.5154 205.919 52.959 205.708 53.3198C205.504 53.6805 205.211 53.9535 204.829 54.1387C204.447 54.3142 203.999 54.4019 203.487 54.4019Z" fill="#4E504D"/>
<path d="M210.758 54.2557L212.6 43.8141H217.017L216.81 44.9694H213.479L212.905 48.2306H216.017L215.834 49.3712H212.71L212.039 53.1004H215.382L215.175 54.2557H210.758Z" fill="#4E504D"/>
<path d="M217.867 54.2557L217.111 46.4172H218.184L218.55 50.7752C218.575 51.0286 218.595 51.326 218.611 51.6672C218.636 52.0085 218.652 52.3302 218.66 52.6324C218.676 52.9249 218.684 53.1394 218.684 53.2759H218.721C218.811 53.0322 218.916 52.7543 219.038 52.4423C219.16 52.1303 219.282 51.8183 219.404 51.5064C219.534 51.1944 219.644 50.936 219.734 50.7313L221.661 46.4172H222.808L219.27 54.2557H217.867Z" fill="#4E504D"/>
<path d="M225.173 54.4019C224.668 54.4019 224.237 54.285 223.879 54.051C223.53 53.8072 223.261 53.466 223.074 53.0273C222.895 52.5788 222.806 52.0523 222.806 51.4479C222.806 50.8239 222.879 50.2097 223.025 49.6052C223.18 48.991 223.4 48.4353 223.684 47.9381C223.969 47.4311 224.311 47.0265 224.709 46.7243C225.116 46.422 225.571 46.2709 226.076 46.2709C226.694 46.2709 227.157 46.4318 227.466 46.7535C227.784 47.0753 227.942 47.5237 227.942 48.0989C227.942 48.4792 227.869 48.8399 227.723 49.1811C227.576 49.5126 227.349 49.8051 227.039 50.0586C226.73 50.3121 226.336 50.5119 225.856 50.6582C225.376 50.7947 224.799 50.8629 224.123 50.8629H223.916C223.908 50.9506 223.9 51.0433 223.892 51.1408C223.892 51.2383 223.892 51.326 223.892 51.404C223.892 51.9987 224.014 52.4716 224.258 52.8225C224.502 53.1638 224.872 53.3344 225.368 53.3344C225.677 53.3344 225.97 53.2808 226.246 53.1735C226.523 53.0663 226.824 52.92 227.149 52.7348V53.8316C226.84 53.9973 226.535 54.1338 226.234 54.2411C225.941 54.3483 225.588 54.4019 225.173 54.4019ZM224.16 49.8246C224.648 49.8246 225.1 49.7758 225.514 49.6783C225.929 49.5711 226.263 49.4005 226.515 49.1665C226.767 48.9228 226.893 48.601 226.893 48.2013C226.893 47.9478 226.82 47.7431 226.673 47.5871C226.535 47.4214 226.316 47.3385 226.015 47.3385C225.754 47.3385 225.498 47.436 225.246 47.631C224.994 47.826 224.766 48.1087 224.563 48.4792C224.359 48.8496 224.197 49.2981 224.075 49.8246H224.16Z" fill="#4E504D"/>
<path d="M228.65 54.2557L230.041 46.4172H230.919L230.785 47.865H230.846C231.017 47.592 231.196 47.3385 231.383 47.1045C231.57 46.8608 231.782 46.6609 232.018 46.5049C232.253 46.3489 232.526 46.2709 232.835 46.2709C232.949 46.2709 233.067 46.2807 233.189 46.3002C233.319 46.3099 233.437 46.3343 233.543 46.3733L233.311 47.5286C233.205 47.4994 233.099 47.4799 232.994 47.4701C232.896 47.4506 232.794 47.4409 232.689 47.4409C232.388 47.4409 232.107 47.5383 231.847 47.7333C231.595 47.9186 231.367 48.1672 231.164 48.4792C230.968 48.7912 230.802 49.1373 230.663 49.5175C230.525 49.8977 230.423 50.2828 230.358 50.6728L229.724 54.2557H228.65Z" fill="#4E504D"/>
<path d="M232.865 57.7655C232.67 57.7655 232.511 57.7509 232.389 57.7216C232.259 57.6924 232.137 57.6583 232.023 57.6193V56.5809C232.137 56.6199 232.259 56.6492 232.389 56.6687C232.519 56.6979 232.657 56.7126 232.804 56.7126C233.137 56.7126 233.418 56.5907 233.646 56.347C233.881 56.1032 234.105 55.7474 234.317 55.2794L234.744 54.3727L233.755 46.4172H234.829L235.256 50.2926C235.297 50.6045 235.325 50.9506 235.341 51.3309C235.366 51.7014 235.382 52.0572 235.39 52.3984C235.407 52.7299 235.415 52.998 235.415 53.2028H235.451C235.508 53.0468 235.59 52.8128 235.695 52.5008C235.809 52.1888 235.931 51.8671 236.061 51.5356C236.191 51.2041 236.305 50.9311 236.403 50.7167L238.306 46.4172H239.453L235.305 55.5719C235.085 56.0593 234.862 56.4639 234.634 56.7857C234.406 57.1172 234.15 57.3609 233.865 57.5169C233.58 57.6826 233.247 57.7655 232.865 57.7655Z" fill="#4E504D"/>
<path d="M241.22 54.4019C240.87 54.4019 240.561 54.3045 240.292 54.1095C240.032 53.9047 239.825 53.6074 239.67 53.2174C239.524 52.8177 239.451 52.3204 239.451 51.7257C239.451 51.1505 239.495 50.5948 239.585 50.0586C239.682 49.5224 239.821 49.03 240 48.5815C240.187 48.1233 240.41 47.7236 240.671 47.3824C240.939 47.0314 241.236 46.7633 241.561 46.578C241.895 46.383 242.261 46.2855 242.659 46.2855C242.952 46.2855 243.204 46.3489 243.416 46.4757C243.627 46.6024 243.806 46.7681 243.953 46.9729C244.099 47.1679 244.217 47.3872 244.306 47.631H244.367C244.392 47.4067 244.416 47.1922 244.441 46.9875C244.465 46.7828 244.493 46.578 244.526 46.3733C244.559 46.1588 244.595 45.9346 244.636 45.7006L245.087 43.1414H246.149L244.184 54.2557H243.306L243.44 52.8079H243.391C243.196 53.1004 242.989 53.3685 242.769 53.6122C242.55 53.856 242.314 54.051 242.062 54.1972C241.809 54.3337 241.529 54.4019 241.22 54.4019ZM241.586 53.3344C241.765 53.3344 241.948 53.2808 242.135 53.1735C242.322 53.0663 242.501 52.9152 242.672 52.7202C242.85 52.5154 243.017 52.2766 243.172 52.0036C243.326 51.7306 243.461 51.4332 243.574 51.1115C243.696 50.78 243.79 50.4339 243.855 50.0732C243.92 49.7027 243.953 49.3225 243.953 48.9325C243.953 48.4645 243.855 48.0843 243.66 47.7918C243.473 47.4994 243.164 47.3531 242.733 47.3531C242.472 47.3531 242.228 47.436 242.001 47.6017C241.781 47.7577 241.582 47.9819 241.403 48.2744C241.224 48.5572 241.069 48.8886 240.939 49.2689C240.817 49.6394 240.719 50.0391 240.646 50.4681C240.581 50.8873 240.549 51.3163 240.549 51.755C240.549 52.2814 240.634 52.6763 240.805 52.9395C240.984 53.2028 241.244 53.3344 241.586 53.3344Z" fill="#4E504D"/>
<path d="M248.285 54.4019C247.935 54.4019 247.626 54.3045 247.358 54.1095C247.098 53.9047 246.89 53.6025 246.736 53.2028C246.589 52.803 246.516 52.3107 246.516 51.7257C246.516 51.1408 246.565 50.5802 246.662 50.044C246.768 49.498 246.915 48.9959 247.102 48.5377C247.289 48.0794 247.512 47.6846 247.773 47.3531C248.041 47.0119 248.338 46.7486 248.663 46.5634C248.997 46.3684 249.351 46.2709 249.725 46.2709C250.009 46.2709 250.257 46.3343 250.469 46.461C250.689 46.5878 250.872 46.7535 251.018 46.9583C251.164 47.163 251.282 47.3872 251.372 47.631H251.433L251.823 46.4172H252.641L251.25 54.2557H250.396L250.554 52.8079H250.506C250.318 53.0906 250.111 53.3539 249.883 53.5976C249.656 53.8414 249.408 54.0363 249.139 54.1826C248.879 54.3288 248.594 54.4019 248.285 54.4019ZM248.639 53.3344C248.94 53.3344 249.233 53.2028 249.517 52.9395C249.81 52.6763 250.074 52.3204 250.31 51.872C250.546 51.4235 250.725 50.9214 250.847 50.3657C250.912 50.0829 250.953 49.8246 250.969 49.5906C250.994 49.3469 251.006 49.1226 251.006 48.9179C251.006 48.4597 250.9 48.0843 250.689 47.7918C250.477 47.4994 250.192 47.3531 249.835 47.3531C249.582 47.3531 249.342 47.4311 249.115 47.5871C248.895 47.7431 248.692 47.9624 248.505 48.2452C248.318 48.5182 248.159 48.8399 248.029 49.2104C247.899 49.5809 247.797 49.9855 247.724 50.4242C247.651 50.8532 247.614 51.2968 247.614 51.755C247.614 52.2814 247.703 52.6763 247.882 52.9395C248.061 53.2028 248.314 53.3344 248.639 53.3344Z" fill="#4E504D"/>
<path d="M252.56 57.7655C252.364 57.7655 252.206 57.7509 252.084 57.7216C251.954 57.6924 251.832 57.6583 251.718 57.6193V56.5809C251.832 56.6199 251.954 56.6492 252.084 56.6687C252.214 56.6979 252.352 56.7126 252.499 56.7126C252.832 56.7126 253.113 56.5907 253.34 56.347C253.576 56.1032 253.8 55.7474 254.012 55.2794L254.439 54.3727L253.45 46.4172H254.524L254.951 50.2926C254.992 50.6045 255.02 50.9506 255.036 51.3309C255.061 51.7014 255.077 52.0572 255.085 52.3984C255.101 52.7299 255.11 52.998 255.11 53.2028H255.146C255.203 53.0468 255.284 52.8128 255.39 52.5008C255.504 52.1888 255.626 51.8671 255.756 51.5356C255.886 51.2041 256 50.9311 256.098 50.7167L258.001 46.4172H259.148L255 55.5719C254.78 56.0593 254.556 56.4639 254.329 56.7857C254.101 57.1172 253.845 57.3609 253.56 57.5169C253.275 57.6826 252.942 57.7655 252.56 57.7655Z" fill="#4E504D"/>
<path d="M49.7637 36.8918L64.8025 19.0896H75.3928L59.8848 37.1678L75.5581 59.7153H64.59L53.5592 42.8653L49.7637 36.8918Z" fill="#E84949"/>
<path d="M66.3279 36.8918L81.3667 19.0896H91.957L76.4491 37.1678L92.0103 59.7153H81.6515L70.1234 42.8653L66.3279 36.8918Z" fill="#1F4FA4"/>
<rect x="39.4109" y="19.0896" width="8.28212" height="40.3753" fill="#1F4FA4"/>
<rect x="30.0938" y="34.6184" width="5.17633" height="24.8464" fill="#1F4FA4"/>
<rect x="20.7761" y="46.0065" width="5.17633" height="13.4584" fill="#1F4FA4"/>
<path fill-rule="evenodd" clip-rule="evenodd" d="M23.3644 44.1947C23.7932 44.1947 24.1409 43.8471 24.1409 43.4183C24.1409 42.9894 23.7932 42.6418 23.3644 42.6418C22.9356 42.6418 22.588 42.9894 22.588 43.4183C22.588 43.8471 22.9356 44.1947 23.3644 44.1947ZM23.3644 44.9712C24.2221 44.9712 24.9173 44.2759 24.9173 43.4183C24.9173 42.5606 24.2221 41.8654 23.3644 41.8654C22.5068 41.8654 21.8115 42.5606 21.8115 43.4183C21.8115 44.2759 22.5068 44.9712 23.3644 44.9712Z" fill="#1F4FA4"/>
<path fill-rule="evenodd" clip-rule="evenodd" d="M32.6818 32.8068C33.1106 32.8068 33.4583 32.4591 33.4583 32.0303C33.4583 31.6015 33.1106 31.2539 32.6818 31.2539C32.253 31.2539 31.9054 31.6015 31.9054 32.0303C31.9054 32.4591 32.253 32.8068 32.6818 32.8068ZM32.6818 33.5832C33.5394 33.5832 34.2347 32.888 34.2347 32.0303C34.2347 31.1727 33.5394 30.4774 32.6818 30.4774C31.8242 30.4774 31.1289 31.1727 31.1289 32.0303C31.1289 32.888 31.8242 33.5832 32.6818 33.5832Z" fill="#1F4FA4"/>
<path fill-rule="evenodd" clip-rule="evenodd" d="M44.0695 17.2778C44.4983 17.2778 44.8459 16.9302 44.8459 16.5014C44.8459 16.0726 44.4983 15.7249 44.0695 15.7249C43.6407 15.7249 43.2931 16.0726 43.2931 16.5014C43.2931 16.9302 43.6407 17.2778 44.0695 17.2778ZM44.0695 18.0543C44.9271 18.0543 45.6224 17.359 45.6224 16.5014C45.6224 15.6437 44.9271 14.9485 44.0695 14.9485C43.2119 14.9485 42.5166 15.6437 42.5166 16.5014C42.5166 17.359 43.2119 18.0543 44.0695 18.0543Z" fill="#1F4FA4"/>
<path fill-rule="evenodd" clip-rule="evenodd" d="M43.7098 17.8491C43.8231 17.9362 43.8443 18.0987 43.7572 18.212L33.4045 31.6705L32.9942 31.3549L43.3469 17.8964C43.434 17.7831 43.5965 17.7619 43.7098 17.8491ZM31.8054 32.8613C31.9182 32.949 31.9385 33.1117 31.8508 33.2245L24.6039 42.5419L24.1953 42.2241L31.4422 32.9067C31.5299 32.7939 31.6925 32.7735 31.8054 32.8613Z" fill="#1F4FA4"/>
<path d="M40.7934 17.38C59.9714 8.27965 65.2926 8.21926 72.0218 9.25452C78.6021 10.2669 81.148 16.0617 81.3392 18.7898C81.5045 16.4749 83.8237 10.8744 76.1629 6.66637C70.365 3.4817 62.7044 4.36186 56.6805 5.71795C52.7574 6.60111 41.52 10.4519 27.9548 18.7898C14.3897 27.1276 5.61834 39.6857 2.92831 44.9224C1.58331 47.5408 -0.498092 53.9844 1.93637 58.8116C4.37084 63.6388 14.7041 65.8153 18.188 65.6764C22.3291 65.6764 26.061 65.1105 30.6112 63.0882C35.2699 61.0177 35.2699 60.5 35.2699 60.5C30.0936 61.5353 27.7046 62.0529 23.3643 62.0529C20.2586 62.0529 12.3705 61.8835 9.0143 56.9904C5.65813 52.0974 9.10038 44.9755 11.241 42.0261C14.6991 36.8442 25.4509 24.6603 40.7934 17.38Z" fill="#E84949"/>
<path d="M102 34.7774V19.0531H105.325V25.9862H105.532L111.19 19.0531H115.175L109.34 26.0937L115.244 34.7774H111.267L106.96 28.3126L105.325 30.3088V34.7774H102Z" fill="#4E504D"/>
<path d="M133.08 34.7774V19.0531H139.284C140.471 19.0531 141.485 19.2655 142.324 19.6904C143.169 20.1101 143.811 20.7064 144.251 21.4793C144.697 22.2471 144.919 23.1505 144.919 24.1896C144.919 25.2338 144.694 26.1321 144.244 26.8845C143.793 27.6318 143.141 28.2051 142.286 28.6044C141.436 29.0036 140.407 29.2032 139.199 29.2032H135.045V26.5313H138.662C139.296 26.5313 139.824 26.4443 140.243 26.2703C140.663 26.0963 140.975 25.8352 141.18 25.4871C141.39 25.1391 141.495 24.7066 141.495 24.1896C141.495 23.6675 141.39 23.2273 141.18 22.869C140.975 22.5107 140.661 22.2394 140.236 22.0551C139.816 21.8658 139.286 21.7711 138.646 21.7711H136.404V34.7774H133.08ZM141.572 27.6216L145.48 34.7774H141.81L137.986 27.6216H141.572Z" fill="#4E504D"/>
<path d="M156.981 19.0531H160.306V29.2647C160.306 30.4112 160.032 31.4145 159.484 32.2744C158.942 33.1343 158.181 33.8048 157.204 34.286C156.226 34.762 155.087 35 153.787 35C152.482 35 151.34 34.762 150.363 34.286C149.385 33.8048 148.625 33.1343 148.082 32.2744C147.54 31.4145 147.269 30.4112 147.269 29.2647V19.0531H150.593V28.9806C150.593 29.5794 150.724 30.1118 150.985 30.5776C151.251 31.0434 151.625 31.4093 152.106 31.6755C152.587 31.9417 153.147 32.0747 153.787 32.0747C154.432 32.0747 154.993 31.9417 155.469 31.6755C155.95 31.4093 156.321 31.0434 156.582 30.5776C156.848 30.1118 156.981 29.5794 156.981 28.9806V19.0531Z" fill="#4E504D"/>
<path d="M176.193 19.0531V34.7774H173.322L166.481 24.8806H166.365V34.7774H163.041V19.0531H165.958L172.746 28.9422H172.884V19.0531H176.193Z" fill="#4E504D"/>
<path d="M181.65 34.7774H178.088L183.516 19.0531H187.8L193.221 34.7774H189.658L185.719 22.6463H185.597L181.65 34.7774ZM181.427 28.5967H189.842V31.1918H181.427V28.5967Z" fill="#4E504D"/>
<path d="M200.117 34.7774V19.0531H203.442V25.9862H203.649L209.308 19.0531H213.292L207.457 26.0937L213.362 34.7774H209.384L205.077 28.3126L203.442 30.3088V34.7774H200.117Z" fill="#4E504D"/>
<path d="M244.349 19.0531V34.7774H241.478L234.637 24.8806H234.522V34.7774H231.197V19.0531H234.115L240.902 28.9422H241.04V19.0531H244.349Z" fill="#4E504D"/>
<path d="M246.497 21.7941V19.0531H259.411V21.7941H254.597V34.7774H251.311V21.7941H246.497Z" fill="#4E504D"/>
<path d="M218.144 34.7243H214.581L220.009 19H223.346L222.09 22.5932L218.144 34.7243ZM217.921 28.5436L223.346 28.6417L224.223 31.1387H217.921V28.5436Z" fill="#DC393D"/>
<path d="M222.47 24.5512L223.931 19.8765L229.802 34.7242H226.239L222.47 24.5512Z" fill="#4E4D4B"/>
<path d="M119.973 34.7243H116.411L121.839 19H125.176L123.92 22.5932L119.973 34.7243ZM119.751 28.5436L125.176 28.6417L126.052 31.1387H119.751V28.5436Z" fill="#DC393D"/>
<path d="M124.299 24.5512L125.76 19.8765L131.631 34.7242H128.069L124.299 24.5512Z" fill="#4E4D4B"/>
</g>
<defs>
<clipPath id="clip0_80_40">
<rect width="260" height="70" fill="white"/>
</clipPath>
</defs>
</svg>
